<?xml version="1.0" encoding="UTF-8" standalone="no"?>
<svg
   aria-hidden="true"
   focusable="false"
   data-prefix="fas"
   data-icon="vector-square"
   class="svg-inline--fa fa-vector-square fa-w-16"
   role="img"
   viewBox="0 0 512 512"
   version="1.1"
   id="svg4"
   sodipodi:docname="vector-square-solid.svg"
   inkscape:version="1.1.1 (3bf5ae0d25, 2021-09-20)"
   xmlns:inkscape="http://www.inkscape.org/namespaces/inkscape"
   xmlns:sodipodi="http://sodipodi.sourceforge.net/DTD/sodipodi-0.dtd"
   xmlns="http://www.w3.org/2000/svg"
   xmlns:svg="http://www.w3.org/2000/svg">
  <defs
     id="defs8" />
  <sodipodi:namedview
     id="namedview6"
     pagecolor="#ffffff"
     bordercolor="#666666"
     borderopacity="1.0"
     inkscape:pageshadow="2"
     inkscape:pageopacity="0.0"
     inkscape:pagecheckerboard="0"
     showgrid="false"
     inkscape:zoom="0.95507812"
     inkscape:cx="255.47648"
     inkscape:cy="256"
     inkscape:window-width="1366"
     inkscape:window-height="703"
     inkscape:window-x="0"
     inkscape:window-y="0"
     inkscape:window-maximized="1"
     inkscape:current-layer="svg4" />
  <path
     fill="currentColor"
     d="M512 128V32c0-17.67-14.33-32-32-32h-96c-17.67 0-32 14.33-32 32H160c0-17.67-14.33-32-32-32H32C14.33 0 0 14.33 0 32v96c0 17.67 14.33 32 32 32v192c-17.67 0-32 14.33-32 32v96c0 17.67 14.33 32 32 32h96c17.67 0 32-14.33 32-32h192c0 17.67 14.33 32 32 32h96c17.67 0 32-14.33 32-32v-96c0-17.67-14.33-32-32-32V160c17.67 0 32-14.33 32-32zm-96-64h32v32h-32V64zM64 64h32v32H64V64zm32 384H64v-32h32v32zm352 0h-32v-32h32v32zm-32-96h-32c-17.67 0-32 14.33-32 32v32H160v-32c0-17.67-14.33-32-32-32H96V160h32c17.67 0 32-14.33 32-32V96h192v32c0 17.67 14.33 32 32 32h32v192z"
     id="path2"
     style="fill:#3cb472;fill-opacity:1" />
</svg>
